<?xml version="1.0" encoding="UTF-8" standalone="no"?>
<!-- Generator: Gravit.io -->
<svg xmlns="http://www.w3.org/2000/svg" xmlns:xlink="http://www.w3.org/1999/xlink" style="isolation:isolate" viewBox="0 0 640 640" width="640px" height="640px"><g><defs><filter id="ZcsnVnYPqIniHANKFTne1xs22o8KNdsj" x="-200%" y="-200%" width="400%" height="400%" filterUnits="objectBoundingBox" color-interpolation-filters="sRGB"><feGaussianBlur xmlns="http://www.w3.org/2000/svg" in="SourceGraphic" stdDeviation="8.587218125678056"/><feOffset xmlns="http://www.w3.org/2000/svg" dx="0" dy="10" result="pf_100_offsetBlur"/><feFlood xmlns="http://www.w3.org/2000/svg" flood-color="#000000" flood-opacity="0.33"/><feComposite xmlns="http://www.w3.org/2000/svg" in2="pf_100_offsetBlur" operator="in" result="pf_100_dropShadow"/><feBlend xmlns="http://www.w3.org/2000/svg" in="SourceGraphic" in2="pf_100_dropShadow" mode="normal"/></filter></defs><g filter="url(#ZcsnVnYPqIniHANKFTne1xs22o8KNdsj)"><path d=" M 248.378 396.42 C 320.446 410.379 383.117 438.827 438 536.5 L 459 536.5 L 459 536.5 L 507 536.5 L 535 536.5 L 406 103.5 L 334 103.5 L 314 103.5 L 105 492.5 L 105 536.5 L 173 536.5 L 248.378 396.42 Z  M 282.199 333.567 C 334.818 340.88 381.744 367.234 421.972 408.234 L 359.14 190.584 L 282.199 333.567 Z " fill-rule="evenodd" fill="rgb(170,170,170)"/></g></g><g><path d=" M 438 536.5 L 507 536.5 C 450 412.5 363 332.5 254 331.5 C 182.834 330.847 208.985 389.713 232 393.5 C 311 406.5 379 431.5 438 536.5 Z " fill="rgb(125,34,43)"/><path d=" M 459 536.5 L 535 536.5 L 406 103.5 L 334 103.5 L 459 536.5 Z " fill="rgb(166,34,54)"/><path d=" M 105 536.5 L 105 492.5 L 314 103.5 L 406 103.5 L 173 536.5 L 105 536.5 Z " fill="rgb(207,43,67)"/></g></svg>