<?xml version="1.0" encoding="UTF-8" standalone="no"?><!-- Generator: Gravit.io --><svg xmlns="http://www.w3.org/2000/svg" xmlns:xlink="http://www.w3.org/1999/xlink" style="isolation:isolate" viewBox="0 0 400 400" width="400pt" height="400pt"><defs><clipPath id="_clipPath_MkZh9ZmRHFm513lsrONAQF7Mqlo3gDYY"><rect width="400" height="400"/></clipPath></defs><g clip-path="url(#_clipPath_MkZh9ZmRHFm513lsrONAQF7Mqlo3gDYY)"><path d=" M 326.447 273.152 L 326.447 273.152 L 326.447 273.152 Q 326.447 299.313 318.215 317.581 L 318.215 317.581 L 318.215 317.581 Q 309.983 335.85 295.073 341.748 L 295.073 341.748 L 295.073 341.748 Q 280.164 347.646 260.589 339.538 L 260.589 339.538 L 260.589 339.538 Q 246.137 333.552 235.526 321.473 L 235.526 321.473 L 235.526 321.473 Q 224.916 309.395 221.257 294.708 L 221.257 294.708 L 219.062 293.798 L 219.062 293.798 Q 210.098 304.355 196.926 306.033 L 196.926 306.033 L 196.926 306.033 Q 183.755 307.712 167.29 300.892 L 167.29 300.892 L 167.29 300.892 Q 137.471 288.541 120.366 262.247 L 120.366 262.247 L 120.366 262.247 Q 103.261 235.953 103.261 203.207 L 103.261 203.207 L 103.261 203.207 Q 103.261 165.522 125.946 151.41 L 125.946 151.41 L 125.946 151.41 Q 148.63 137.299 186.864 153.136 L 186.864 153.136 L 186.864 153.136 Q 200.768 158.895 217.69 168.374 L 217.69 168.374 L 217.69 168.374 Q 234.612 177.853 247.783 187.699 L 247.783 187.699 L 243.759 271.099 L 243.759 275.49 L 243.759 275.49 Q 243.759 304.76 262.784 312.641 L 262.784 312.641 L 262.784 312.641 Q 277.237 318.627 285.743 303.491 L 285.743 303.491 L 285.743 303.491 Q 294.25 288.354 294.25 259.45 L 294.25 259.45 L 294.25 259.45 Q 294.25 228.167 281.444 199.172 L 281.444 199.172 L 281.444 199.172 Q 268.638 170.177 245.039 147.596 L 245.039 147.596 L 245.039 147.596 Q 221.44 125.016 190.889 112.361 L 190.889 112.361 L 190.889 112.361 Q 151.923 96.221 123.11 100.385 L 123.11 100.385 L 123.11 100.385 Q 94.297 104.549 79.113 128.17 L 79.113 128.17 L 79.113 128.17 Q 63.929 151.791 63.929 191.306 L 63.929 191.306 L 63.929 191.306 Q 63.929 244.358 92.285 284.642 L 92.285 284.642 L 92.285 284.642 Q 120.64 324.926 173.693 346.901 L 173.693 346.901 L 173.693 346.901 Q 214.122 363.648 258.028 365.369 L 258.028 365.369 L 258.028 395.371 L 258.028 395.371 Q 219.611 395.191 174.425 376.475 L 174.425 376.475 L 174.425 376.475 Q 106.737 348.437 68.868 296.255 L 68.868 296.255 L 68.868 296.255 Q 31 244.073 31 178.764 L 31 178.764 L 31 178.764 Q 31 131.017 51.489 102.275 L 51.489 102.275 L 51.489 102.275 Q 71.978 73.534 108.292 68.818 L 108.292 68.818 L 108.292 68.818 Q 144.605 64.102 190.523 83.122 L 190.523 83.122 L 190.523 83.122 Q 230.221 99.565 261.229 128.874 L 261.229 128.874 L 261.229 128.874 Q 292.238 158.183 309.342 195.727 L 309.342 195.727 L 309.342 195.727 Q 326.447 233.272 326.447 273.152 Z  M 138.386 218.488 L 138.386 218.488 L 138.386 218.488 Q 138.386 261.113 171.863 274.98 L 171.863 274.98 L 171.863 274.98 Q 207.171 289.605 210.464 237.367 L 210.464 237.367 L 212.659 194.554 L 212.659 194.554 Q 201.134 186.67 187.962 181.214 L 187.962 181.214 L 187.962 181.214 Q 164.546 171.515 151.466 181.647 L 151.466 181.647 L 151.466 181.647 Q 138.386 191.779 138.386 218.488 Z " fill="rgb(0,0,0)"/><path d=" M 368.981 209.9 Q 368.388 240.914 368.981 209.9 L 368.981 209.9 C 366.07 224.874 369.969 218.984 359.202 247.006 C 348.436 275.028 338.542 289.259 311.246 329.431 Q 300.718 320.658 284.27 306.952 C 311.401 282.526 326.458 245.287 330.728 233.518 C 334.998 221.75 337.171 214.439 336.783 196.197 L 336.783 196.197 L 336.783 196.197 Q 336.783 164.915 323.978 135.92 L 323.978 135.92 L 323.978 135.92 Q 311.172 106.925 287.573 84.344 L 287.573 84.344 L 287.573 84.344 Q 263.973 61.763 233.423 49.108 L 233.423 49.108 L 233.423 49.108 Q 194.456 32.968 165.643 37.132 Q 136.831 41.296 165.643 37.132 L 165.643 37.132 Q 137.919 37.899 125.414 56.679 C 112.91 75.458 95.617 103.485 78.957 128.17 Q 66.674 120.74 47.485 109.131 C 64.969 80.907 77.957 56.928 94.023 39.023 Q 110.088 21.117 94.023 39.023 L 94.023 39.023 Q 114.512 10.282 150.825 5.566 L 150.825 5.566 L 150.825 5.566 Q 187.139 0.85 233.057 19.869 L 233.057 19.869 L 233.057 19.869 Q 272.755 36.313 303.763 65.621 L 303.763 65.621 L 303.763 65.621 Q 334.771 94.93 351.876 132.475 L 351.876 132.475 L 351.876 132.475 Q 369.574 178.885 368.981 209.9 Z " fill="rgb(0,0,0)"/></g></svg>