<?xml version="1.0" standalone="no"?><!-- Generator: Gravit.io --><svg xmlns="http://www.w3.org/2000/svg" xmlns:xlink="http://www.w3.org/1999/xlink" style="isolation:isolate" viewBox="0 0 260 260" width="260" height="260"><defs><clipPath id="_clipPath_7PBhOx6phFMvzZzocrRiQy3cb31gx8qD"><rect width="260" height="260"/></clipPath></defs><g clip-path="url(#_clipPath_7PBhOx6phFMvzZzocrRiQy3cb31gx8qD)"><defs><filter id="Up3QhPOCMB0bjNEyiyqTnqWnNk9pZWKQ" x="-200%" y="-200%" width="400%" height="400%"><feOffset xmlns="http://www.w3.org/2000/svg" in="SourceAlpha" result="offOut" dx="0" dy="4"/><feGaussianBlur xmlns="http://www.w3.org/2000/svg" in="offOut" result="blurOut" stdDeviation="3"/><feComponentTransfer xmlns="http://www.w3.org/2000/svg" in="blurOut" result="opacOut"><feFuncA xmlns="http://www.w3.org/2000/svg" type="table" tableValues="0 0.3"/></feComponentTransfer><feBlend xmlns="http://www.w3.org/2000/svg" in="SourceGraphic" in2="opacOut" mode="normal"/></filter></defs><g filter="url(#Up3QhPOCMB0bjNEyiyqTnqWnNk9pZWKQ)"><path d=" M 185.357 19.2 L 240.757 41.36 L 240.757 218.64 L 185.357 240.8 L 97.409 152.853 L 41.316 196.48 L 19.156 185.4 L 19.156 74.6 L 41.316 63.52 L 97.409 107.147 L 185.357 19.2 Z  M 185.357 175.878 L 185.357 84.122 L 126.84 130 L 185.357 175.878 Z  M 40.797 163.76 L 74.556 130 L 40.797 96.24 L 40.797 163.76 Z  M 185.184 18.161 L 184.751 18.594 L 97.323 106.022 L 41.836 62.827 L 41.403 62.481 L 40.884 62.741 L 18.81 73.821 L 18.291 74.08 L 18.291 185.92 L 18.81 186.179 L 40.97 197.259 L 41.489 197.519 L 41.922 197.173 L 97.409 153.978 L 184.838 241.406 L 185.27 241.839 L 185.79 241.666 L 241.19 219.506 L 241.709 219.246 L 241.709 40.754 L 241.19 40.494 L 185.79 18.334 L 185.184 18.161 Z  M 128.225 130 L 184.491 85.939 L 184.491 174.147 L 128.225 130 Z  M 41.663 161.682 L 41.663 98.318 L 73.345 130 L 41.663 161.682 Z " fill="none" vector-effect="non-scaling-stroke" stroke-width="7" stroke="rgb(255,255,255)" stroke-linejoin="miter" stroke-linecap="butt" stroke-miterlimit="4"/></g><linearGradient id="_lgradient_0" x1="5.294825511432011%" y1="1.692047377326561%" x2="110.28880866425992%" y2="89.39650310208684%"><stop offset="0%" stop-opacity="1" style="stop-color:rgb(169,43,75)"/><stop offset="98.69565217391305%" stop-opacity="1" style="stop-color:rgb(85,86,150)"/></linearGradient><path d=" M 19.2 74.6 L 41.4 63.5 L 240.8 218.6 L 185.4 240.8 L 19.2 74.6 Z " fill="url(#_lgradient_0)"/><linearGradient id="_lgradient_1" x1="50.00000000000006%" y1="0%" x2="50.000000000000064%" y2="100.00000000000003%"><stop offset="2.1739130434782608%" stop-opacity="1" style="stop-color:rgb(85,86,150)"/><stop offset="50%" stop-opacity="1" style="stop-color:rgb(1,128,223)"/><stop offset="99.1304347826087%" stop-opacity="1" style="stop-color:rgb(85,86,150)"/></linearGradient><path d=" M 185.4 19.2 L 185.4 240.8 L 240.8 218.6 L 240.8 41.4 L 185.4 19.2 Z " fill="url(#_lgradient_1)"/><linearGradient id="_lgradient_2" x1="2.842960288808655%" y1="99.1539763113367%" x2="90.83935018050533%" y2="1.2972363226169792%"><stop offset="0%" stop-opacity="1" style="stop-color:rgb(169,43,75)"/><stop offset="100%" stop-opacity="1" style="stop-color:rgb(85,86,150)"/></linearGradient><path d=" M 41.36 196.5 L 240.8 41.4 L 185.4 19.2 L 19.2 185.4 L 41.36 196.5 Z " fill="url(#_lgradient_2)"/><linearGradient id="_lgradient_3" x1="50.000000000000036%" y1="-1.1102230246251565e-14%" x2="50.00000000000004%" y2="99.99999999999997%"><stop offset="1.3043478260869565%" stop-opacity="1" style="stop-color:rgb(169,43,75)"/><stop offset="47.391304347826086%" stop-opacity="1" style="stop-color:rgb(255,0,0)"/><stop offset="100%" stop-opacity="1" style="stop-color:rgb(169,43,75)"/></linearGradient><path d=" M 19.2 74.6 L 41.4 63.5 L 41.4 196.5 L 19.2 185.4 L 19.2 74.6 Z " fill="url(#_lgradient_3)"/><linearGradient id="_lgradient_4" x1="50%" y1="-1.1102230246251565e-14%" x2="50.000000000000014%" y2="99.99999999999997%"><stop offset="1.3043478260869565%" stop-opacity="1" style="stop-color:rgb(169,43,75)"/><stop offset="47.391304347826086%" stop-opacity="1" style="stop-color:rgb(255,0,0)"/><stop offset="100%" stop-opacity="1" style="stop-color:rgb(169,43,75)"/></linearGradient><path d=" M 19.2 74.6 L 40.832 96.238 L 41.4 196.5 L 19.2 185.4 L 19.2 74.6 Z " fill="url(#_lgradient_4)"/><linearGradient id="_lgradient_5" x1="10.60395764703887%" y1="3.759398496240612%" x2="236.73656921949333%" y2="239.84962406015046%"><stop offset="0.8695652173913043%" stop-opacity="1" style="stop-color:rgb(169,43,75)"/><stop offset="98.26086956521739%" stop-opacity="1" style="stop-color:rgb(85,86,150)"/></linearGradient><path d=" M 19.2 74.6 L 41.4 63.5 L 97.473 107.121 L 74.602 130 L 19.2 74.6 Z " fill="url(#_lgradient_5)"/></g></svg>