<?xml version="1.0" standalone="no"?><!-- Generator: Gravit.io --><svg xmlns="http://www.w3.org/2000/svg" xmlns:xlink="http://www.w3.org/1999/xlink" style="isolation:isolate" viewBox="0 0 260 260" width="260" height="260"><defs><clipPath id="_clipPath_6vibnfS2dVKT6B4oDqp4gvEPZ3DtDy5m"><rect width="260" height="260"/></clipPath></defs><g clip-path="url(#_clipPath_6vibnfS2dVKT6B4oDqp4gvEPZ3DtDy5m)"><defs><filter id="ShbdvLVF2CQe6Pil4pE0NF61WSXwuOIH" x="-200%" y="-200%" width="400%" height="400%"><feOffset xmlns="http://www.w3.org/2000/svg" in="SourceAlpha" result="offOut" dx="0" dy="4"/><feGaussianBlur xmlns="http://www.w3.org/2000/svg" in="offOut" result="blurOut" stdDeviation="3"/><feComponentTransfer xmlns="http://www.w3.org/2000/svg" in="blurOut" result="opacOut"><feFuncA xmlns="http://www.w3.org/2000/svg" type="table" tableValues="0 0.3"/></feComponentTransfer><feBlend xmlns="http://www.w3.org/2000/svg" in="SourceGraphic" in2="opacOut" mode="normal"/></filter></defs><g filter="url(#ShbdvLVF2CQe6Pil4pE0NF61WSXwuOIH)"><path d=" M 185.357 19.2 L 240.757 41.36 L 240.757 218.64 L 185.357 240.8 L 97.409 152.853 L 41.316 196.48 L 19.156 185.4 L 19.156 74.6 L 41.316 63.52 L 97.409 107.147 L 185.357 19.2 Z  M 185.357 175.878 L 185.357 84.122 L 126.84 130 L 185.357 175.878 Z  M 40.797 163.76 L 74.556 130 L 40.797 96.24 L 40.797 163.76 Z  M 185.184 18.161 L 184.751 18.594 L 97.323 106.022 L 41.836 62.827 L 41.403 62.481 L 40.884 62.741 L 18.81 73.821 L 18.291 74.08 L 18.291 185.92 L 18.81 186.179 L 40.97 197.259 L 41.489 197.519 L 41.922 197.173 L 97.409 153.978 L 184.838 241.406 L 185.27 241.839 L 185.79 241.666 L 241.19 219.506 L 241.709 219.246 L 241.709 40.754 L 241.19 40.494 L 185.79 18.334 L 185.184 18.161 Z  M 128.225 130 L 184.491 85.939 L 184.491 174.147 L 128.225 130 Z  M 41.663 161.682 L 41.663 98.318 L 73.345 130 L 41.663 161.682 Z " fill="none" vector-effect="non-scaling-stroke" stroke-width="7" stroke="rgb(255,255,255)" stroke-linejoin="miter" stroke-linecap="butt" stroke-miterlimit="4"/></g><path d=" M 185.4 19.2 L 97.452 107.147 L 41.36 63.52 L 19.2 74.6 L 19.2 185.4 L 41.36 196.48 L 97.452 152.853 L 185.4 240.8 L 240.8 218.64 L 240.8 41.36 L 185.4 19.2 Z  M 40.84 163.76 L 40.84 96.24 L 74.6 130 L 40.84 163.76 Z  M 126.884 130 L 185.4 84.122 L 185.4 175.878 L 126.884 130 Z " fill="rgb(1,108,223)"/></g></svg>